<svg xmlns="http://www.w3.org/2000/svg" xmlns:xlink="http://www.w3.org/1999/xlink" width="1080" zoomAndPan="magnify" viewBox="0 0 810 1012.49997" height="1350" preserveAspectRatio="xMidYMid meet" version="1.0"><defs><clipPath id="526ff61afb"><path d="M 321.734375 356.789062 L 556.367188 356.789062 L 556.367188 655.140625 L 321.734375 655.140625 Z M 321.734375 356.789062 " clip-rule="nonzero"/></clipPath><clipPath id="2cbd038d8b"><path d="M 231 312 L 425.847656 312 L 425.847656 700 L 231 700 Z M 231 312 " clip-rule="nonzero"/></clipPath><clipPath id="320615db4c"><path d="M 217.449219 297.445312 L 425.847656 297.445312 L 425.847656 714.238281 L 217.449219 714.238281 Z M 217.449219 297.445312 " clip-rule="nonzero"/></clipPath></defs><g clip-path="url(#526ff61afb)"><path fill="#ffffff" d="M 402.234375 655.199219 L 406.65625 655.199219 C 407 655.25 407.34375 655.25 407.6875 655.199219 C 410.128906 655.199219 412.570312 655.136719 415.007812 655.011719 C 417.445312 654.890625 419.882812 654.707031 422.3125 654.46875 C 424.742188 654.226562 427.164062 653.925781 429.578125 653.5625 C 431.992188 653.203125 434.398438 652.78125 436.792969 652.304688 C 439.1875 651.824219 441.566406 651.289062 443.9375 650.691406 C 446.304688 650.097656 448.65625 649.441406 450.992188 648.730469 C 453.328125 648.019531 455.644531 647.25 457.945312 646.425781 C 460.242188 645.601562 462.519531 644.722656 464.773438 643.785156 C 467.027344 642.847656 469.257812 641.855469 471.464844 640.808594 C 473.671875 639.761719 475.851562 638.664062 478.003906 637.511719 C 480.15625 636.355469 482.277344 635.152344 484.371094 633.894531 C 486.464844 632.636719 488.527344 631.328125 490.554688 629.96875 C 492.582031 628.609375 494.578125 627.203125 496.539062 625.746094 C 498.496094 624.289062 500.421875 622.785156 502.308594 621.234375 C 504.191406 619.683594 506.039062 618.085938 507.847656 616.445312 C 509.65625 614.804688 511.421875 613.117188 513.144531 611.390625 C 514.871094 609.660156 516.550781 607.890625 518.191406 606.082031 C 519.828125 604.269531 521.421875 602.421875 522.96875 600.53125 C 524.515625 598.640625 526.015625 596.714844 527.46875 594.753906 C 528.921875 592.789062 530.324219 590.792969 531.679688 588.761719 C 533.03125 586.730469 534.335938 584.664062 535.589844 582.570312 C 536.84375 580.472656 538.042969 578.347656 539.191406 576.195312 C 540.339844 574.039062 541.4375 571.859375 542.480469 569.648438 C 543.519531 567.441406 544.507812 565.207031 545.441406 562.949219 C 546.371094 560.695312 547.246094 558.414062 548.066406 556.117188 C 548.886719 553.816406 549.652344 551.496094 550.359375 549.160156 C 551.066406 546.820312 551.714844 544.46875 552.304688 542.097656 C 552.894531 539.730469 553.425781 537.347656 553.902344 534.953125 C 554.375 532.558594 554.789062 530.152344 555.144531 527.734375 C 555.5 525.320312 555.796875 522.898438 556.035156 520.464844 C 556.273438 518.035156 556.449219 515.601562 556.566406 513.160156 C 556.683594 510.722656 556.742188 508.28125 556.738281 505.839844 C 556.734375 503.398438 556.671875 500.957031 556.550781 498.519531 C 556.429688 496.082031 556.246094 493.648438 556.003906 491.214844 C 555.761719 488.785156 555.460938 486.363281 555.101562 483.949219 C 554.738281 481.535156 554.320312 479.128906 553.839844 476.734375 C 553.363281 474.339844 552.824219 471.960938 552.230469 469.589844 C 551.632812 467.222656 550.980469 464.871094 550.269531 462.535156 C 549.558594 460.199219 548.789062 457.882812 547.964844 455.582031 C 547.140625 453.285156 546.257812 451.007812 545.320312 448.753906 C 544.382812 446.5 543.394531 444.269531 542.347656 442.0625 C 541.300781 439.855469 540.199219 437.675781 539.046875 435.523438 C 537.894531 433.371094 536.6875 431.25 535.429688 429.15625 C 534.171875 427.0625 532.867188 425 531.507812 422.972656 C 530.148438 420.945312 528.742188 418.949219 527.285156 416.988281 C 525.828125 415.03125 524.324219 413.105469 522.773438 411.222656 C 521.222656 409.335938 519.625 407.488281 517.984375 405.679688 C 516.339844 403.871094 514.65625 402.105469 512.925781 400.382812 C 511.199219 398.65625 509.429688 396.976562 507.617188 395.335938 C 505.808594 393.699219 503.957031 392.105469 502.066406 390.558594 C 500.179688 389.011719 498.253906 387.511719 496.289062 386.058594 C 494.328125 384.609375 492.332031 383.203125 490.296875 381.847656 C 488.265625 380.496094 486.203125 379.191406 484.105469 377.9375 C 482.011719 376.683594 479.886719 375.484375 477.730469 374.335938 C 475.578125 373.1875 473.394531 372.089844 471.1875 371.046875 C 468.976562 370.007812 466.746094 369.019531 464.488281 368.089844 C 462.230469 367.15625 459.953125 366.28125 457.652344 365.460938 C 455.351562 364.640625 453.035156 363.875 450.695312 363.167969 C 448.359375 362.464844 446.007812 361.8125 443.636719 361.222656 C 441.265625 360.632812 438.886719 360.101562 436.488281 359.625 C 434.09375 359.152344 431.6875 358.738281 429.273438 358.382812 C 426.855469 358.027344 424.433594 357.730469 422.003906 357.492188 C 419.574219 357.257812 417.136719 357.078125 414.699219 356.960938 C 412.261719 356.84375 409.820312 356.785156 407.378906 356.789062 L 402.234375 356.789062 C 399.792969 356.789062 397.351562 356.851562 394.914062 356.972656 C 392.476562 357.09375 390.042969 357.273438 387.613281 357.511719 C 385.183594 357.753906 382.761719 358.050781 380.34375 358.410156 C 377.929688 358.769531 375.527344 359.1875 373.132812 359.664062 C 370.738281 360.140625 368.355469 360.675781 365.988281 361.273438 C 363.621094 361.867188 361.269531 362.515625 358.933594 363.226562 C 356.597656 363.9375 354.28125 364.703125 351.980469 365.523438 C 349.683594 366.347656 347.40625 367.226562 345.152344 368.160156 C 342.894531 369.097656 340.664062 370.085938 338.457031 371.128906 C 336.25 372.175781 334.070312 373.273438 331.917969 374.425781 C 329.765625 375.574219 327.640625 376.777344 325.546875 378.035156 C 323.453125 379.289062 321.394531 380.597656 319.363281 381.953125 C 317.335938 383.308594 315.339844 384.714844 313.378906 386.171875 C 311.417969 387.625 309.496094 389.125 307.605469 390.675781 C 305.71875 392.226562 303.871094 393.820312 302.0625 395.460938 C 300.253906 397.097656 298.488281 398.78125 296.761719 400.507812 C 295.035156 402.234375 293.355469 404.003906 291.714844 405.8125 C 290.074219 407.621094 288.480469 409.46875 286.933594 411.359375 C 285.382812 413.246094 283.882812 415.167969 282.429688 417.128906 C 280.976562 419.089844 279.570312 421.085938 278.214844 423.117188 C 276.859375 425.148438 275.550781 427.210938 274.296875 429.304688 C 273.042969 431.398438 271.839844 433.519531 270.691406 435.675781 C 269.539062 437.828125 268.441406 440.007812 267.398438 442.214844 C 266.355469 444.421875 265.367188 446.652344 264.433594 448.910156 C 263.496094 451.164062 262.621094 453.441406 261.796875 455.738281 C 260.976562 458.039062 260.210938 460.355469 259.5 462.691406 C 258.792969 465.027344 258.140625 467.378906 257.546875 469.75 C 256.957031 472.117188 256.421875 474.5 255.945312 476.894531 C 255.46875 479.289062 255.050781 481.691406 254.691406 484.105469 C 254.335938 486.523438 254.035156 488.945312 253.796875 491.375 C 253.558594 493.804688 253.378906 496.238281 253.257812 498.675781 C 253.140625 501.113281 253.078125 503.554688 253.078125 505.996094 C 253.078125 508.4375 253.140625 510.875 253.257812 513.316406 C 253.378906 515.753906 253.558594 518.1875 253.796875 520.617188 C 254.035156 523.046875 254.335938 525.46875 254.691406 527.882812 C 255.050781 530.296875 255.46875 532.703125 255.945312 535.097656 C 256.421875 537.492188 256.957031 539.875 257.546875 542.242188 C 258.140625 544.609375 258.792969 546.960938 259.5 549.296875 C 260.210938 551.632812 260.976562 553.953125 261.796875 556.25 C 262.621094 558.550781 263.496094 560.824219 264.433594 563.082031 C 265.367188 565.335938 266.355469 567.570312 267.398438 569.777344 C 268.441406 571.984375 269.539062 574.164062 270.691406 576.316406 C 271.839844 578.46875 273.042969 580.59375 274.296875 582.6875 C 275.550781 584.78125 276.859375 586.84375 278.214844 588.875 C 279.570312 590.902344 280.976562 592.898438 282.429688 594.859375 C 283.882812 596.820312 285.382812 598.746094 286.933594 600.632812 C 288.480469 602.519531 290.074219 604.367188 291.714844 606.175781 C 293.355469 607.988281 295.035156 609.753906 296.761719 611.480469 C 298.488281 613.207031 300.253906 614.890625 302.0625 616.53125 C 303.871094 618.171875 305.71875 619.765625 307.605469 621.3125 C 309.496094 622.863281 311.417969 624.367188 313.378906 625.820312 C 315.339844 627.273438 317.335938 628.679688 319.363281 630.039062 C 321.394531 631.394531 323.453125 632.699219 325.546875 633.957031 C 327.640625 635.210938 329.765625 636.414062 331.917969 637.566406 C 334.070312 638.71875 336.25 639.816406 338.457031 640.859375 C 340.664062 641.902344 342.894531 642.894531 345.152344 643.828125 C 347.40625 644.761719 349.683594 645.640625 351.980469 646.464844 C 354.28125 647.289062 356.597656 648.054688 358.933594 648.765625 C 361.269531 649.472656 363.621094 650.125 365.988281 650.71875 C 368.355469 651.3125 370.738281 651.847656 373.132812 652.324219 C 375.527344 652.800781 377.929688 653.21875 380.34375 653.578125 C 382.761719 653.9375 385.183594 654.238281 387.613281 654.476562 C 390.042969 654.71875 392.476562 654.898438 394.914062 655.019531 C 397.351562 655.140625 399.792969 655.199219 402.234375 655.199219 Z M 314.769531 504.554688 C 314.902344 494.355469 316.050781 484.269531 318.214844 474.300781 C 332.402344 477.589844 346.738281 479.972656 361.226562 481.453125 C 360.660156 488.605469 360.300781 495.960938 360.199219 503.472656 C 360.199219 513.25 360.558594 522.613281 361.332031 531.773438 C 346.882812 533.320312 332.59375 535.808594 318.472656 539.230469 C 315.933594 527.8125 314.699219 516.253906 314.769531 504.554688 Z M 493.867188 504.554688 C 494 516.71875 492.679688 528.722656 489.90625 540.570312 C 475.855469 537.011719 461.636719 534.355469 447.253906 532.59375 C 448.074219 523.28125 448.539062 513.660156 448.433594 503.679688 C 448.433594 495.960938 448.023438 488.246094 447.40625 481.09375 C 461.851562 479.40625 476.136719 476.835938 490.265625 473.375 C 492.582031 483.640625 493.820312 494.03125 493.96875 504.554688 Z M 370.386719 503.578125 C 370.386719 496.324219 370.796875 489.222656 371.3125 482.378906 C 380.984375 483.101562 391.015625 483.5625 401.511719 483.5625 L 404.34375 483.5625 C 415.96875 483.5625 427.101562 483.015625 437.734375 481.917969 C 438.300781 488.914062 438.660156 496.117188 438.710938 503.578125 C 438.710938 513.148438 438.351562 522.355469 437.578125 531.308594 C 426.980469 530.332031 415.867188 529.714844 404.292969 529.609375 C 392.714844 529.507812 381.910156 529.972656 371.464844 530.84375 C 370.589844 522.046875 370.179688 512.941406 370.28125 503.578125 Z M 404.394531 424.703125 L 405.472656 424.703125 C 413.089844 424.703125 420.1875 424.34375 426.878906 423.878906 C 431.484375 439.65625 434.726562 455.710938 436.601562 472.039062 C 426.3125 472.964844 415.457031 473.53125 404.136719 473.582031 C 392.816406 473.632812 382.375 473.273438 372.1875 472.5 C 374.113281 455.953125 377.390625 439.679688 382.011719 423.675781 C 389.472656 424.34375 397.089844 424.703125 404.394531 424.703125 Z M 385.050781 413.949219 C 390.21875 398.15625 396.6875 382.910156 404.445312 368.210938 C 412.199219 382.96875 418.683594 398.269531 423.894531 414.105469 C 418.078125 414.515625 411.957031 414.722656 405.421875 414.773438 L 404.394531 414.773438 C 397.960938 414.773438 391.480469 414.464844 385.050781 413.949219 Z M 404.085938 539.59375 C 415.40625 539.59375 426.207031 540.261719 436.449219 541.238281 C 434.472656 557.511719 431.183594 573.511719 426.570312 589.242188 C 419.933594 588.777344 412.933594 588.46875 405.472656 588.46875 C 398.015625 588.46875 390.039062 588.777344 382.375 589.394531 C 377.65625 573.457031 374.308594 557.230469 372.339844 540.722656 C 382.476562 539.902344 393.074219 539.488281 404.085938 539.59375 Z M 405.421875 598.605469 C 411.804688 598.605469 417.769531 598.605469 423.480469 599.222656 C 418.355469 614.660156 412.007812 629.582031 404.445312 643.984375 C 396.882812 629.617188 390.535156 614.730469 385.410156 599.324219 C 391.941406 598.605469 398.785156 598.605469 405.421875 598.605469 Z M 390.554688 638.582031 C 382.925781 634.042969 375.738281 628.886719 368.992188 623.117188 C 362.246094 617.34375 356.039062 611.046875 350.371094 604.214844 C 358.550781 602.515625 366.886719 601.179688 375.222656 600.25 C 379.492188 613.296875 384.601562 626.007812 390.554688 638.375 Z M 379.699219 643.726562 C 373.757812 642.710938 367.910156 641.3125 362.152344 639.539062 C 356.394531 637.761719 350.777344 635.621094 345.296875 633.113281 C 339.820312 630.609375 334.523438 627.761719 329.414062 624.570312 C 324.304688 621.375 319.421875 617.867188 314.769531 614.039062 C 322.988281 611.058594 331.339844 608.503906 339.824219 606.375 C 345.394531 613.613281 351.523438 620.34375 358.214844 626.558594 C 364.90625 632.777344 372.066406 638.398438 379.699219 643.417969 Z M 418.285156 638.582031 C 424.304688 626.085938 429.449219 613.242188 433.722656 600.046875 C 442.152344 600.847656 450.523438 602.082031 458.828125 603.75 C 453.132812 610.65625 446.878906 617.019531 440.070312 622.832031 C 433.261719 628.648438 426 633.828125 418.285156 638.375 Z M 469.734375 606.21875 C 477.117188 608.121094 484.371094 610.417969 491.5 613.113281 C 487.148438 616.753906 482.59375 620.117188 477.832031 623.199219 C 473.066406 626.28125 468.136719 629.058594 463.03125 631.535156 C 457.925781 634.011719 452.691406 636.164062 447.324219 638 C 441.953125 639.832031 436.496094 641.328125 430.941406 642.492188 C 445.820312 632.449219 458.699219 620.289062 469.582031 606.015625 Z M 436.808594 590.320312 C 441.339844 574.636719 444.5625 558.6875 446.480469 542.472656 C 460.363281 544.175781 474.082031 546.75 487.640625 550.191406 C 482.78125 566.335938 475.457031 581.273438 465.671875 595.003906 C 456.09375 592.808594 446.421875 591.175781 436.652344 590.117188 Z M 446.53125 471.007812 C 444.617188 454.753906 441.425781 438.753906 436.960938 423.007812 C 446.785156 422.007812 456.507812 420.414062 466.132812 418.222656 C 475.871094 432.136719 483.128906 447.246094 487.898438 463.546875 C 474.261719 466.886719 460.472656 469.375 446.53125 471.007812 Z M 434.03125 413.382812 C 429.710938 399.792969 424.460938 386.570312 418.285156 373.714844 C 426.164062 378.445312 433.558594 383.835938 440.472656 389.886719 C 447.386719 395.9375 453.710938 402.550781 459.445312 409.730469 C 451.035156 411.386719 442.566406 412.605469 434.03125 413.382812 Z M 430.738281 369.804688 C 436.410156 370.980469 441.992188 372.507812 447.476562 374.382812 C 452.957031 376.261719 458.304688 378.472656 463.507812 381.019531 C 468.714844 383.566406 473.742188 386.425781 478.589844 389.605469 C 483.4375 392.78125 488.066406 396.25 492.476562 400.007812 C 485.257812 402.742188 477.917969 405.089844 470.457031 407.054688 C 464.921875 399.769531 458.824219 392.988281 452.15625 386.71875 C 445.492188 380.449219 438.351562 374.777344 430.738281 369.703125 Z M 390.554688 373.769531 C 384.496094 386.53125 379.351562 399.648438 375.117188 413.128906 C 366.628906 412.203125 358.191406 410.8125 349.910156 409.0625 C 355.589844 402.015625 361.84375 395.515625 368.671875 389.570312 C 375.496094 383.625 382.792969 378.324219 390.554688 373.664062 Z M 339.105469 406.59375 C 330.515625 404.414062 322.0625 401.804688 313.738281 398.773438 C 318.449219 394.855469 323.394531 391.269531 328.582031 388.007812 C 333.765625 384.746094 339.144531 381.839844 344.710938 379.289062 C 350.28125 376.742188 355.992188 374.570312 361.851562 372.773438 C 367.707031 370.980469 373.65625 369.578125 379.699219 368.570312 C 371.878906 373.6875 364.550781 379.429688 357.710938 385.796875 C 350.867188 392.160156 344.617188 399.058594 338.949219 406.492188 Z M 372.136719 422.800781 C 367.574219 438.84375 364.347656 455.15625 362.460938 471.730469 C 348.390625 470.3125 334.464844 468.015625 320.683594 464.835938 C 323.070312 456.441406 326.140625 448.304688 329.898438 440.429688 C 333.652344 432.554688 338.042969 425.046875 343.066406 417.914062 C 352.617188 420.023438 362.257812 421.621094 371.980469 422.695312 Z M 362.460938 541.648438 C 364.382812 558.179688 367.65625 574.441406 372.289062 590.425781 C 362.652344 591.546875 353.101562 593.160156 343.632812 595.261719 C 338.601562 588.226562 334.191406 580.824219 330.398438 573.054688 C 326.609375 565.28125 323.488281 557.25 321.042969 548.957031 C 334.6875 545.605469 348.496094 543.167969 362.460938 541.648438 Z M 333.394531 597.832031 C 324.144531 600.277344 315.054688 603.210938 306.125 606.632812 C 299.871094 600.664062 294.21875 594.171875 289.167969 587.160156 C 284.117188 580.144531 279.753906 572.726562 276.078125 564.90625 C 287.402344 559.195312 299.183594 554.6875 311.421875 551.375 C 316.265625 568.035156 323.589844 583.519531 333.394531 597.832031 Z M 499.578125 605.449219 C 491.816406 602.28125 483.890625 599.589844 475.808594 597.371094 C 485.167969 583.550781 492.25 568.644531 497.054688 552.660156 C 507.859375 555.800781 518.289062 559.898438 528.335938 564.957031 C 524.800781 572.515625 520.613281 579.695312 515.78125 586.5 C 510.949219 593.300781 505.546875 599.617188 499.578125 605.449219 Z M 532.246094 555.800781 C 521.753906 550.542969 510.863281 546.308594 499.578125 543.089844 C 502.425781 531.183594 503.886719 519.109375 503.957031 506.867188 C 504.027344 494.625 502.703125 482.535156 499.988281 470.597656 C 511.382812 467.480469 522.425781 463.414062 533.121094 458.402344 C 534.542969 462.300781 535.785156 466.257812 536.851562 470.265625 C 537.914062 474.277344 538.800781 478.328125 539.5 482.414062 C 540.203125 486.503906 540.722656 490.617188 541.054688 494.753906 C 541.390625 498.890625 541.539062 503.03125 541.5 507.179688 C 541.464844 511.328125 541.242188 515.46875 540.832031 519.597656 C 540.425781 523.726562 539.832031 527.828125 539.058594 531.90625 C 538.28125 535.980469 537.324219 540.015625 536.1875 544.003906 C 535.050781 547.996094 533.738281 551.925781 532.246094 555.800781 Z M 529.316406 449.398438 C 519.042969 454.277344 508.425781 458.242188 497.46875 461.285156 C 492.773438 445.066406 485.757812 429.921875 476.425781 415.855469 C 484.59375 413.574219 492.601562 410.828125 500.453125 407.621094 C 506.492188 413.648438 511.941406 420.171875 516.789062 427.195312 C 521.640625 434.214844 525.816406 441.617188 529.316406 449.398438 Z M 305.25 406.183594 C 314.199219 409.628906 323.308594 412.59375 332.570312 415.082031 C 322.847656 429.625 315.628906 445.316406 310.910156 462.160156 C 298.492188 458.957031 286.488281 454.617188 274.894531 449.144531 C 278.558594 441.09375 282.941406 433.457031 288.046875 426.230469 C 293.152344 419.007812 298.886719 412.324219 305.25 406.183594 Z M 271.34375 458.457031 C 283.367188 464.070312 295.800781 468.546875 308.644531 471.882812 C 306.289062 482.613281 305.054688 493.46875 304.941406 504.453125 C 304.824219 517.125 306.160156 529.644531 308.953125 542.011719 C 296.234375 545.453125 283.972656 550.101562 272.167969 555.953125 C 270.683594 552.085938 269.378906 548.160156 268.246094 544.175781 C 267.113281 540.191406 266.164062 536.164062 265.390625 532.09375 C 264.621094 528.023438 264.03125 523.925781 263.628906 519.804688 C 263.222656 515.679688 263.003906 511.550781 262.96875 507.40625 C 262.933594 503.265625 263.082031 499.128906 263.417969 495 C 263.753906 490.871094 264.273438 486.765625 264.972656 482.683594 C 265.675781 478.601562 266.558594 474.558594 267.621094 470.554688 C 268.6875 466.550781 269.925781 462.605469 271.34375 458.710938 Z M 271.34375 458.457031 " fill-opacity="1" fill-rule="nonzero"/></g><g clip-path="url(#2cbd038d8b)"><path fill="#ffffff" d="M 437.054688 699.5 L 418.167969 663.234375 C 413.089844 662.996094 408.035156 662.5 403.007812 661.75 L 377.265625 693.632812 C 368.621094 691.390625 360.15625 688.550781 351.882812 685.128906 L 350.375 644.378906 C 345.882812 641.945312 341.492188 639.257812 337.226562 636.371094 L 300.363281 653.886719 C 293.675781 648.1875 287.292969 642.050781 281.316406 635.375 L 297.9375 597.804688 C 296.449219 595.75 294.890625 593.8125 293.496094 591.640625 C 292.105469 589.5 290.976562 587.277344 289.710938 585.074219 L 248.617188 584.914062 C 244.972656 576.753906 241.960938 568.40625 239.492188 559.988281 L 270.523438 533.503906 C 269.613281 528.429688 268.964844 523.3125 268.578125 518.203125 L 231.964844 500.207031 C 232.226562 491.261719 233.089844 482.359375 234.589844 473.574219 L 274.191406 463.050781 C 275.566406 458.167969 277.171875 453.367188 279.007812 448.617188 L 253.625 416.566406 C 257.660156 408.75 262.234375 401.1875 267.34375 393.921875 L 307.523438 401.703125 C 310.859375 397.933594 314.398438 394.285156 318.136719 390.796875 L 309.292969 350.722656 C 312.855469 348.058594 316.488281 345.46875 320.269531 343.007812 C 324.050781 340.554688 327.925781 338.316406 331.804688 336.140625 L 364.777344 360.550781 C 369.488281 358.566406 374.253906 356.8125 379.0625 355.320312 L 388.34375 315.488281 C 397.082031 313.769531 405.828125 312.6875 414.628906 312.203125 L 433.539062 348.453125 C 438.621094 348.6875 443.667969 349.199219 448.683594 349.929688 L 474.441406 318.050781 C 483.078125 320.3125 491.542969 323.136719 499.824219 326.535156 L 501.296875 367.296875 C 505.800781 369.757812 510.199219 372.410156 514.472656 375.296875 L 551.320312 357.824219 C 558.019531 363.476562 564.398438 369.660156 570.375 376.300781 L 553.761719 413.878906 C 555.234375 415.949219 556.820312 417.882812 558.199219 420.035156 C 559.601562 422.191406 560.75 424.417969 562.015625 426.609375 L 603.070312 426.773438 C 606.730469 434.949219 609.757812 443.269531 612.207031 451.699219 L 581.175781 478.1875 C 582.078125 483.261719 582.726562 488.382812 583.121094 493.464844 L 619.730469 511.472656 C 619.464844 520.414062 618.585938 529.316406 617.09375 538.128906 L 577.507812 548.644531 C 576.125 553.535156 574.535156 558.34375 572.691406 563.054688 L 598.074219 595.105469 C 594.007812 602.933594 589.4375 610.511719 584.328125 617.753906 L 544.160156 609.964844 C 540.839844 613.761719 537.316406 617.410156 533.574219 620.90625 L 542.390625 660.953125 C 538.835938 663.632812 535.207031 666.238281 531.417969 668.6875 C 527.640625 671.144531 523.773438 673.378906 519.90625 675.546875 L 486.90625 651.140625 C 482.195312 653.136719 477.4375 654.867188 472.628906 656.355469 L 463.339844 696.207031 C 454.628906 697.90625 445.851562 699.019531 437.054688 699.5 M 425.742188 378.242188 C 415.8125 378.242188 405.839844 379.398438 396.027344 381.753906 C 382.328125 385.050781 368.9375 390.691406 356.445312 398.789062 C 297.3125 437.113281 280.441406 516.128906 318.78125 575.253906 C 343.214844 612.9375 384.164062 633.445312 425.941406 633.445312 C 435.875 633.445312 445.84375 632.292969 455.664062 629.929688 C 469.371094 626.644531 482.753906 621.007812 495.253906 612.90625 C 554.359375 574.566406 571.238281 495.566406 532.902344 436.449219 C 508.46875 398.75 467.535156 378.242188 425.742188 378.242188 " fill-opacity="1" fill-rule="nonzero"/></g><g clip-path="url(#320615db4c)"><path fill="#231f20" d="M 428.6875 714.199219 L 424.449219 706.058594 L 409.214844 676.835938 L 409.109375 676.820312 L 388.332031 702.5625 L 382.566406 709.703125 L 373.703125 707.394531 C 364.425781 704.984375 355.265625 701.914062 346.441406 698.277344 L 338.003906 694.789062 L 337.671875 685.664062 L 336.457031 652.785156 L 336.183594 652.597656 L 306.46875 666.722656 L 298.160156 670.679688 L 291.15625 664.726562 C 283.804688 658.472656 276.929688 651.785156 270.742188 644.882812 L 264.605469 638.042969 L 268.328125 629.632812 L 281.640625 599.503906 L 281.589844 599.417969 L 281.496094 599.277344 L 248.554688 599.140625 L 239.375 599.105469 L 235.632812 590.707031 C 231.875 582.289062 228.585938 573.316406 225.851562 564.003906 L 223.253906 555.152344 L 230.265625 549.15625 L 255.261719 527.816406 L 255.230469 527.5 L 225.6875 512.976562 L 217.472656 508.941406 L 217.746094 499.789062 C 218.039062 490.128906 218.984375 480.507812 220.558594 471.191406 L 222.097656 462.175781 L 230.941406 459.835938 L 262.925781 451.335938 L 262.953125 451.234375 L 242.480469 425.394531 L 236.773438 418.195312 L 240.984375 410.042969 C 245.285156 401.722656 250.246094 393.535156 255.714844 385.746094 L 261.015625 378.210938 L 270.058594 379.960938 L 302.46875 386.238281 L 302.546875 386.164062 L 295.414062 353.769531 L 293.445312 344.847656 L 300.769531 339.347656 C 305.1875 336.046875 308.929688 333.414062 312.53125 331.074219 C 316.070312 328.777344 319.882812 326.519531 324.871094 323.726562 L 332.894531 319.25 L 340.269531 324.714844 L 366.902344 344.429688 L 367.007812 344.382812 L 374.492188 312.269531 L 376.582031 303.3125 L 385.589844 301.535156 C 394.8125 299.726562 404.3125 298.523438 413.828125 297.992188 L 422.996094 297.480469 L 427.234375 305.617188 L 442.480469 334.859375 L 442.574219 334.867188 L 463.378906 309.125 L 469.152344 301.992188 L 478.023438 304.300781 C 487.230469 306.703125 496.386719 309.761719 505.222656 313.386719 L 513.703125 316.855469 L 514.035156 326.03125 L 515.230469 358.917969 L 515.507812 359.082031 L 545.222656 344.972656 L 553.484375 341.042969 L 560.484375 346.957031 C 567.632812 352.980469 574.515625 359.660156 580.9375 366.785156 L 587.105469 373.625 L 583.378906 382.058594 L 570.0625 412.1875 L 570.136719 412.285156 L 570.207031 412.425781 L 603.128906 412.558594 L 612.304688 412.597656 L 616.054688 420.964844 C 619.902344 429.5625 623.199219 438.5625 625.859375 447.746094 L 628.417969 456.5625 L 621.441406 462.523438 L 596.421875 483.863281 L 596.46875 484.191406 L 626 498.71875 L 634.21875 502.738281 L 633.941406 511.890625 C 633.660156 521.4375 632.710938 531.054688 631.121094 540.503906 L 629.601562 549.519531 L 620.75 551.867188 L 588.777344 560.347656 L 588.753906 560.433594 L 609.21875 586.28125 L 614.9375 593.480469 L 610.699219 601.648438 C 606.300781 610.132812 601.34375 618.300781 595.949219 625.949219 L 590.65625 633.460938 L 581.621094 631.722656 L 549.230469 625.445312 L 549.152344 625.53125 L 556.269531 657.90625 L 558.242188 666.832031 L 550.9375 672.316406 C 546.578125 675.601562 542.828125 678.242188 539.152344 680.625 C 535.601562 682.925781 531.695312 685.253906 526.839844 687.960938 L 518.824219 692.441406 L 511.453125 686.972656 L 484.785156 667.25 L 484.675781 667.289062 L 477.1875 699.4375 L 475.097656 708.390625 L 466.074219 710.148438 C 456.777344 711.976562 447.277344 713.179688 437.835938 713.691406 L 428.6875 714.199219 M 403.007812 661.75 C 408.035156 662.5 413.089844 662.996094 418.167969 663.234375 L 437.054688 699.5 C 445.851562 699.019531 454.628906 697.90625 463.339844 696.207031 L 472.628906 656.355469 C 477.4375 654.867188 482.195312 653.136719 486.90625 651.140625 L 519.90625 675.546875 C 523.773438 673.378906 527.640625 671.144531 531.417969 668.6875 C 535.207031 666.238281 538.835938 663.632812 542.390625 660.953125 L 533.574219 620.90625 C 537.316406 617.410156 540.839844 613.761719 544.160156 609.964844 L 584.328125 617.753906 C 589.4375 610.511719 594.007812 602.933594 598.074219 595.105469 L 572.691406 563.054688 C 574.535156 558.34375 576.125 553.535156 577.507812 548.644531 L 617.09375 538.128906 C 618.585938 529.316406 619.464844 520.414062 619.730469 511.472656 L 583.121094 493.464844 C 582.726562 488.382812 582.078125 483.261719 581.175781 478.1875 L 612.207031 451.699219 C 609.757812 443.269531 606.730469 434.949219 603.070312 426.773438 L 562.015625 426.609375 C 560.75 424.417969 559.601562 422.191406 558.199219 420.035156 C 556.820312 417.882812 555.234375 415.949219 553.761719 413.878906 L 570.375 376.300781 C 564.398438 369.660156 558.019531 363.476562 551.320312 357.824219 L 514.472656 375.296875 C 510.199219 372.410156 505.800781 369.757812 501.296875 367.296875 L 499.824219 326.535156 C 491.542969 323.136719 483.078125 320.3125 474.441406 318.050781 L 448.683594 349.929688 C 443.667969 349.199219 438.621094 348.6875 433.539062 348.453125 L 414.628906 312.203125 C 405.828125 312.6875 397.082031 313.769531 388.34375 315.488281 L 379.0625 355.320312 C 374.253906 356.8125 369.488281 358.566406 364.777344 360.550781 L 331.804688 336.140625 C 327.925781 338.316406 324.050781 340.554688 320.269531 343.007812 C 316.488281 345.46875 312.855469 348.058594 309.292969 350.722656 L 318.136719 390.796875 C 314.398438 394.285156 310.859375 397.933594 307.523438 401.703125 L 267.34375 393.921875 C 262.234375 401.1875 257.660156 408.75 253.625 416.566406 L 279.007812 448.617188 C 277.171875 453.367188 275.566406 458.167969 274.191406 463.050781 L 234.589844 473.574219 C 233.089844 482.359375 232.226562 491.261719 231.964844 500.207031 L 268.578125 518.203125 C 268.964844 523.3125 269.613281 528.429688 270.523438 533.503906 L 239.492188 559.988281 C 241.960938 568.40625 244.972656 576.753906 248.617188 584.914062 L 289.710938 585.074219 C 290.976562 587.277344 292.105469 589.5 293.496094 591.640625 C 294.890625 593.8125 296.449219 595.75 297.9375 597.804688 L 281.316406 635.375 C 287.292969 642.050781 293.675781 648.1875 300.363281 653.886719 L 337.226562 636.371094 C 341.492188 639.257812 345.882812 641.945312 350.375 644.378906 L 351.882812 685.128906 C 360.15625 688.550781 368.621094 691.390625 377.265625 693.632812 L 403.007812 661.75 M 425.941406 633.445312 C 384.164062 633.445312 343.214844 612.9375 318.78125 575.253906 C 280.441406 516.128906 297.3125 437.113281 356.445312 398.789062 C 368.9375 390.691406 382.328125 385.050781 396.027344 381.753906 C 405.839844 379.398438 415.8125 378.242188 425.742188 378.242188 C 467.535156 378.242188 508.46875 398.75 532.902344 436.449219 C 571.238281 495.566406 554.359375 574.566406 495.253906 612.90625 C 482.753906 621.007812 469.371094 626.644531 455.664062 629.929688 C 445.84375 632.292969 435.875 633.445312 425.941406 633.445312 M 425.738281 392.453125 C 416.980469 392.453125 408.128906 393.46875 399.359375 395.578125 C 386.886719 398.585938 375.050781 403.671875 364.183594 410.726562 C 338.765625 427.1875 321.296875 452.578125 314.972656 482.191406 C 308.644531 511.800781 314.238281 542.121094 330.722656 567.539062 C 351.914062 600.214844 388.117188 619.234375 425.949219 619.234375 C 434.710938 619.234375 443.5625 618.214844 452.339844 616.101562 C 464.808594 613.109375 476.644531 608.015625 487.511719 600.96875 C 512.914062 584.484375 530.390625 559.113281 536.710938 529.496094 C 543.035156 499.875 537.441406 469.59375 520.96875 444.175781 C 499.769531 411.46875 463.558594 392.453125 425.738281 392.453125 " fill-opacity="1" fill-rule="nonzero"/></g></svg>